#define closemaster_width 13
#define closemaster_height 13
static unsigned char closemaster_bits[] = {
   0xe0, 0x00, 0xf8, 0x03, 0xfc, 0x07, 0xfe, 0x0f, 0xee, 0x0e, 0x5f, 0x1f,
   0xbf, 0x1f, 0x5f, 0x1f, 0xee, 0x0e, 0xfe, 0x0f, 0xfc, 0x07, 0xf8, 0x03,
   0xe0, 0x00 };
