#define max_toggled_width 14
#define max_toggled_height 14
static unsigned char max_toggled_bits[] = {
   0x00, 0x00, 0x00, 0x00, 0xc0, 0x0f, 0x40, 0x08, 0xfc, 0x09, 0x04, 0x09,
   0x04, 0x09, 0x04, 0x0f, 0x04, 0x01, 0x04, 0x01, 0xfc, 0x01, 0x00, 0x00,
   0x00, 0x00, 0x00, 0x00 };
