#define desk_alt_width 10
#define desk_alt_height 10
static unsigned char desk_alt_bits[] = {
   0x00, 0x00, 0x00, 0x00, 0xcc, 0x00, 0xcc, 0x00, 0x00, 0x00, 0x00, 0x00,
   0xcc, 0x00, 0xcc, 0x00, 0x00, 0x00, 0x00, 0x00 };
