#define desk_toggled_alt_width 10
#define desk_toggled_alt_height 10
static unsigned char desk_toggled_alt_bits[] = {
   0x00, 0x00, 0x00, 0x00, 0x00, 0x00, 0x78, 0x00, 0x78, 0x00, 0x78, 0x00,
   0x78, 0x00, 0x00, 0x00, 0x00, 0x00, 0x00, 0x00 };
