#define max_alt2_width 10
#define max_alt2_height 10
static unsigned char max_alt2_bits[] = {
   0x00, 0x00, 0x00, 0x00, 0xfc, 0x00, 0x84, 0x00, 0x84, 0x00, 0x84, 0x00,
   0x84, 0x00, 0xfc, 0x00, 0x00, 0x00, 0x00, 0x00 };
