#define shade_alt_width 10
#define shade_alt_height 10
static unsigned char shade_alt_bits[] = {
   0x00, 0x00, 0x00, 0x00, 0x30, 0x00, 0x78, 0x00, 0xfc, 0x00, 0xb4, 0x00,
   0x30, 0x00, 0x30, 0x00, 0x00, 0x00, 0x00, 0x00 };
